<?xml version="1.0" encoding="UTF-8"?>
<svg xmlns="http://www.w3.org/2000/svg" xmlns:xlink="http://www.w3.org/1999/xlink" width="37.5pt" height="37.499999pt" viewBox="0 0 37.5 37.499999" version="1.2">
<defs>
<clipPath id="clip1">
  <path d="M 0 0 L 37.007812 0 L 37.007812 37.007812 L 0 37.007812 Z M 0 0 "/>
</clipPath>
</defs>
<g id="surface1">
<g clip-path="url(#clip1)" clip-rule="nonzero">
<path style=" stroke:none;fill-rule:nonzero;fill:rgb(0%,0%,0%);fill-opacity:1;" d="M 36.234375 33.882812 L 25.382812 33.882812 L 25.382812 34.484375 C 25.382812 35.484375 24.570312 36.292969 23.574219 36.292969 C 22.574219 36.292969 21.765625 35.484375 21.765625 34.484375 L 21.765625 33.882812 L 10.914062 33.882812 L 10.914062 19.25 C 11.296875 19.285156 11.699219 19.316406 12.117188 19.34375 L 12.117188 32.675781 L 35.027344 32.675781 L 35.027344 19.414062 L 36.234375 19.414062 Z M 4.882812 10.539062 L 13.128906 14.285156 C 13.570312 14.488281 14.042969 14.589844 14.53125 14.589844 C 15.015625 14.589844 15.488281 14.488281 15.929688 14.285156 L 24.175781 10.539062 L 24.175781 16.632812 C 23.273438 17.046875 20.242188 18.207031 14.53125 18.207031 C 8.8125 18.207031 5.785156 17.046875 4.882812 16.632812 Z M 1.265625 7.355469 C 1.265625 7.226562 1.339844 7.105469 1.460938 7.050781 L 13.628906 1.523438 C 13.914062 1.390625 14.214844 1.328125 14.53125 1.328125 C 14.84375 1.328125 15.148438 1.390625 15.433594 1.523438 L 27.597656 7.050781 C 27.714844 7.105469 27.792969 7.226562 27.792969 7.355469 C 27.792969 7.484375 27.714844 7.605469 27.597656 7.660156 L 25.597656 8.566406 L 14.050781 6.160156 L 13.804688 7.34375 L 23.742188 9.410156 L 15.433594 13.1875 C 14.863281 13.449219 14.199219 13.449219 13.628906 13.1875 L 1.460938 7.660156 C 1.339844 7.605469 1.265625 7.484375 1.265625 7.355469 Z M 13.324219 19.394531 C 13.714844 19.40625 14.113281 19.414062 14.53125 19.414062 C 18.542969 19.414062 21.285156 18.867188 22.96875 18.359375 L 22.96875 31.472656 L 13.324219 31.472656 Z M 27.792969 10.257812 L 27.792969 13.496094 C 27.132812 13.734375 26.648438 14.339844 26.597656 15.070312 L 25.402344 19.871094 L 25.382812 21.824219 L 31.410156 21.824219 L 31.410156 20.015625 L 30.371094 15.796875 L 33.824219 15.796875 L 33.824219 31.472656 L 24.175781 31.472656 L 24.175781 17.945312 C 24.75 17.710938 25.050781 17.539062 25.089844 17.515625 L 25.382812 17.34375 L 25.382812 9.992188 L 25.738281 9.828125 Z M 28.394531 14.589844 C 28.726562 14.589844 29 14.859375 29 15.191406 C 29 15.523438 28.726562 15.796875 28.394531 15.796875 C 28.0625 15.796875 27.792969 15.523438 27.792969 15.191406 C 27.792969 14.859375 28.0625 14.589844 28.394531 14.589844 Z M 27.429688 16.714844 C 27.710938 16.894531 28.039062 17 28.394531 17 C 28.75 17 29.082031 16.894531 29.363281 16.714844 L 30.203125 20.089844 L 30.203125 20.617188 L 26.585938 20.617188 L 26.585938 20.089844 Z M 35.027344 18.207031 L 35.027344 14.589844 L 30.09375 14.589844 C 29.914062 14.078125 29.511719 13.675781 29 13.496094 L 29 9.277344 L 27.59375 8.984375 L 28.097656 8.757812 C 28.644531 8.507812 29 7.957031 29 7.355469 C 29 6.753906 28.644531 6.203125 28.097656 5.953125 L 15.929688 0.425781 C 15.042969 0.0234375 14.015625 0.0234375 13.128906 0.425781 L 0.960938 5.953125 C 0.414062 6.203125 0.0585938 6.753906 0.0585938 7.355469 C 0.0585938 7.957031 0.414062 8.507812 0.960938 8.757812 L 3.675781 9.992188 L 3.675781 17.34375 L 3.96875 17.515625 C 4.066406 17.578125 5.8125 18.59375 9.707031 19.113281 L 9.707031 35.089844 L 20.621094 35.089844 C 20.898438 36.464844 22.117188 37.5 23.574219 37.5 C 25.027344 37.5 26.246094 36.464844 26.527344 35.089844 L 37.441406 35.089844 L 37.441406 18.207031 L 35.027344 18.207031 "/>
</g>
<path style=" stroke:none;fill-rule:nonzero;fill:rgb(0%,0%,0%);fill-opacity:1;" d="M 15.734375 26.648438 L 20.558594 26.648438 L 20.558594 29.058594 L 15.734375 29.058594 Z M 14.53125 30.265625 L 21.765625 30.265625 L 21.765625 25.441406 L 14.53125 25.441406 L 14.53125 30.265625 "/>
<path style=" stroke:none;fill-rule:nonzero;fill:rgb(0%,0%,0%);fill-opacity:1;" d="M 14.53125 24.238281 L 21.765625 24.238281 L 21.765625 23.03125 L 14.53125 23.03125 L 14.53125 24.238281 "/>
<path style=" stroke:none;fill-rule:nonzero;fill:rgb(0%,0%,0%);fill-opacity:1;" d="M 14.53125 20.617188 L 14.53125 21.824219 L 21.765625 21.824219 L 21.765625 20.617188 L 14.53125 20.617188 "/>
<path style=" stroke:none;fill-rule:nonzero;fill:rgb(0%,0%,0%);fill-opacity:1;" d="M 25.382812 24.238281 L 32.617188 24.238281 L 32.617188 23.03125 L 25.382812 23.03125 L 25.382812 24.238281 "/>
<path style=" stroke:none;fill-rule:nonzero;fill:rgb(0%,0%,0%);fill-opacity:1;" d="M 25.382812 26.648438 L 32.617188 26.648438 L 32.617188 25.441406 L 25.382812 25.441406 L 25.382812 26.648438 "/>
<path style=" stroke:none;fill-rule:nonzero;fill:rgb(0%,0%,0%);fill-opacity:1;" d="M 25.382812 29.058594 L 32.617188 29.058594 L 32.617188 27.855469 L 25.382812 27.855469 L 25.382812 29.058594 "/>
<path style=" stroke:none;fill-rule:nonzero;fill:rgb(0%,0%,0%);fill-opacity:1;" d="M 6.476562 6.097656 L 6.976562 7.195312 L 13.425781 4.261719 L 12.925781 3.164062 L 6.476562 6.097656 "/>
</g>
</svg>
